<?xml version="1.0" encoding="UTF-8"?>
<svg width="26.184mm" height="26.184mm" version="1.1" viewBox="0 0 26.184 26.184" xmlns="http://www.w3.org/2000/svg">
 <g transform="translate(-91.104 -96.115)">
  <g transform="translate(.17954)">
   <path transform="scale(.26458)" d="m350.05 363.27c-3.5457 0-6.4004 2.8547-6.4004 6.4004v86.166c0 3.5457 2.8547 6.3984 6.4004 6.3984h86.164c3.5457 0 6.4004-2.8527 6.4004-6.3984v-86.166c0-3.5457-2.8547-6.4004-6.4004-6.4004h-28.475a14.642 14.642 0 0 1-14.607 14.354 14.642 14.642 0 0 1-14.609-14.354z" fill="#ff0053" stroke-dashoffset="36.472" stroke-miterlimit="2" stroke-opacity=".48852" stroke-width=".31721"/>
   <g fill="#fff" stroke-width=".2744" aria-label="TD">
    <path d="m102.33 118.34v-6.454h-2.1952v-1.4049h5.8722v1.4049h-2.1952v6.454z"/>
    <path d="m107.07 110.48h2.6562q0.93297 0 1.6793 0.28538t1.2732 0.81223q0.52685 0.51588 0.80125 1.2403 0.28538 0.72442 0.28538 1.5915 0 0.87809-0.28538 1.6025-0.2744 0.72442-0.80125 1.2403-0.52686 0.51588-1.2732 0.80126t-1.6793 0.28538h-2.6562zm2.5904 6.454q0.64759 0 1.1415-0.17562 0.49393-0.18659 0.82321-0.51588 0.32929-0.32928 0.49393-0.79028 0.16464-0.47197 0.16464-1.0427 0-0.57075-0.16464-1.0318-0.16464-0.47197-0.49393-0.80125-0.32928-0.32929-0.82321-0.5049-0.49392-0.1866-1.1415-0.1866h-1.1086v5.049z"/>
   </g>
  </g>
  <g transform="matrix(.50755 0 0 .50755 43.389 27.613)" opacity="0" stroke-width=".26458" aria-label="TypeDex">
   <path d="m105.09 160.45h-2.1394v6.6249h-0.86817v-6.6249h-2.1342v-0.78548h5.1418z"/>
   <path d="m109.77 161.78-2.434 6.1391q-0.65112 1.6433-1.8293 1.6433-0.33072 0-0.55293-0.0672v-0.75964q0.27388 0.093 0.50126 0.093 0.64078 0 0.96118-0.7648l0.42374-1.0025-2.067-5.2813h0.94051l1.4314 4.0721q0.0258 0.0775 0.10852 0.40308h0.031q0.0258-0.12403 0.10335-0.39274l1.5038-4.0824z"/>
   <path d="m111.55 166.31h-0.0207v3.1988h-0.84749v-7.7256h0.84749v0.93017h0.0207q0.62528-1.0542 1.8293-1.0542 1.0232 0 1.5968 0.71313 0.57361 0.70797 0.57361 1.9017 0 1.3281-0.64595 2.1291-0.64596 0.79581-1.7673 0.79581-1.0284 0-1.5865-0.88883zm-0.0207-2.1342v0.73897q0 0.65629 0.42374 1.1162 0.42891 0.45475 1.0852 0.45475 0.76998 0 1.2041-0.58911 0.43925-0.58911 0.43925-1.6381 0-0.88366-0.40824-1.3849-0.40825-0.50126-1.1059-0.50126-0.73897 0-1.1886 0.51676-0.44958 0.5116-0.44958 1.2867z"/>
   <path d="m121.16 164.64h-3.7362q0.0207 0.88366 0.47542 1.3642 0.45475 0.48059 1.2506 0.48059 0.894 0 1.6433-0.58911v0.79582q-0.69763 0.50642-1.8448 0.50642-1.1214 0-1.7622-0.7183-0.64079-0.72346-0.64079-2.0309 0-1.2351 0.69763-2.0102 0.7028-0.78031 1.7415-0.78031 1.0387 0 1.6071 0.67179 0.56843 0.67179 0.56843 1.8655zm-0.86816-0.7183q-5e-3 -0.7338-0.35656-1.142-0.34623-0.40824-0.96635-0.40824-0.59944 0-1.018 0.42891-0.41858 0.42892-0.51676 1.1214z"/>
   <g stroke-width=".26458">
    <path d="m122.5 167.07v-7.4104h2.1394q4.0979 0 4.0979 3.6122 0 1.7156-1.1369 2.7595-1.1369 1.0387-3.0489 1.0387zm1.2247-6.3665v5.3278h0.98184q1.2971 0 2.0154-0.71313 0.72347-0.71314 0.72347-2.0154 0-2.5993-2.6923-2.5993z"/>
    <path d="m134.43 164.75h-3.607q0.0207 0.7338 0.44958 1.1317 0.43408 0.3979 1.1886 0.3979 0.84749 0 1.5555-0.50642v0.96634q-0.72347 0.45475-1.912 0.45475-1.1679 0-1.8345-0.7183-0.66146-0.72346-0.66146-2.0309 0-1.2351 0.72864-2.0102 0.7338-0.78031 1.819-0.78031t1.6795 0.69763 0.59428 1.9379zm-1.1576-0.84749q-5e-3 -0.64596-0.30489-1.0025-0.29972-0.36174-0.82682-0.36174-0.51676 0-0.8785 0.37724-0.35656 0.37724-0.43924 0.98702z"/>
    <path d="m140 161.78-1.7622 2.6768 1.7415 2.6148h-1.3901l-0.93017-1.6381q-0.0879-0.14986-0.20671-0.3824h-0.0207q-0.0207 0.0465-0.21704 0.3824l-0.94568 1.6381h-1.3849l1.7983-2.5942-1.7053-2.6975h1.3953l0.91467 1.7208q0.10335 0.1912 0.20153 0.39274h0.0155l1.1834-2.1136z"/>
   </g>
  </g>
 </g>
</svg>
